# xmcd CD database file
#
# Track frame offsets:
#	150
#	14082
#	26748
#	40645
#	53487
#	67559
#	78584
#	89903
#	100997
#	115805
#	130225
#	142979
#
# Disc length: 2103 seconds
#
# Revision: 0
# Processed by: cddbd v1.5.1PL0 Copyright (c) Steve Scherf et al.
# Submitted via: CDex 1.50
#
DISCID=9a08350c
DTITLE=Glenn Miller - It's A Blue World
DYEAR=2000
DGENRE=Jazz
TTITLE0=Elmers Tune
TTITLE1=Imagination
TTITLE2=Careless
TTITLE3=Stairway To The Stars
TTITLE4=Sweet Eloise
TTITLE5=Yes, My Darling Daughter
TTITLE6=The Jumpin 'Jive
TTITLE7=Over The Rainbow
TTITLE8=Perfidia
TTITLE9=Don't Sit Under The Apple Tree
TTITLE10=Blueberry Hill
TTITLE11=It's A Blue World
EXTD=YEAR: 2000
EXTT0=
EXTT1=
EXTT2=
EXTT3=
EXTT4=
EXTT5=
EXTT6=
EXTT7=
EXTT8=
EXTT9=
EXTT10=
EXTT11=
PLAYORDER=
